<svg xmlns="http://www.w3.org/2000/svg" width="1200" height="320" viewBox="0 0 1200 320" role="img" aria-label="JangoPay — Stablecoin payments for global online businesses">
<defs><linearGradient id="bg" x2="1" y2=".7"><stop stop-color="#07152F"/><stop offset="1" stop-color="#0C3C85"/></linearGradient><radialGradient id="light"><stop stop-color="#2F82FF" stop-opacity=".45"/><stop offset="1" stop-color="#2F82FF" stop-opacity="0"/></radialGradient></defs>
<rect width="1200" height="320" rx="24" fill="url(#bg)"/><ellipse cx="950" cy="125" rx="340" ry="280" fill="url(#light)"/>
<g fill="none" stroke="#59A8FF" stroke-opacity=".28"><path d="M720 240 820 110 960 160 1100 70"/><path d="M820 110 1000 55 960 160 1080 260"/><circle cx="960" cy="160" r="80"/><circle cx="960" cy="160" r="130"/></g>
<g fill="#83C8FF"><circle cx="720" cy="240" r="5"/><circle cx="820" cy="110" r="6"/><circle cx="960" cy="160" r="8"/><circle cx="1100" cy="70" r="5"/><circle cx="1000" cy="55" r="4"/><circle cx="1080" cy="260" r="5"/></g>
<rect x="64" y="62" width="36" height="4" rx="2" fill="#68B7FF"/>
<text x="64" y="135" fill="#FFFFFF" font-size="60" font-weight="750" font-family="Arial, sans-serif">JangoPay</text>
<text x="64" y="181" fill="#BED9FF" font-size="22" font-family="Arial, sans-serif">Stablecoin payments. Global possibilities.</text>
<text x="64" y="221" fill="#89A9D0" font-size="14" letter-spacing="2" font-family="Arial, sans-serif">PAYMENT LINKS  /  API &amp; WEBHOOKS  /  MERCHANT OPERATIONS</text>
<text x="64" y="277" fill="#7C9AC3" font-size="12" letter-spacing="2" font-family="Arial, sans-serif">BUILT FOR GLOBAL ONLINE BUSINESSES</text></svg>